<mxfile host="app.diagrams.net" modified="2023-09-09T16:03:29.730Z" agent="Mozilla/5.0 (Macintosh; Intel Mac OS X 10_15_7) AppleWebKit/537.36 (KHTML, like Gecko) Chrome/116.0.0.0 Safari/537.36" etag="szI91WK4iidgCbX9WgcD" version="21.7.4" type="github">
  <diagram name="algorithm" id="adM98vQe3f9MLWTUm6cm">
    <mxGraphModel dx="700" dy="388" grid="1" gridSize="10" guides="1" tooltips="1" connect="1" arrows="1" fold="1" page="1" pageScale="1" pageWidth="850" pageHeight="1100" math="0" shadow="0">
      <root>
        <mxCell id="0" />
        <mxCell id="1" parent="0" />
        <mxCell id="M4kgXLvnVEi-8cHZ9Ypp-6" value="" style="verticalLabelPosition=bottom;verticalAlign=top;html=1;shape=mxgraph.basic.patternFillRect;fillStyle=grid;step=5;fillStrokeWidth=0.2;fillStrokeColor=#dddddd;" vertex="1" parent="1">
          <mxGeometry x="320" y="230" width="80" height="100" as="geometry" />
        </mxCell>
        <mxCell id="M4kgXLvnVEi-8cHZ9Ypp-1" value="&lt;div style=&quot;&quot;&gt;&lt;span style=&quot;background-color: initial;&quot;&gt;&lt;b&gt;Existing&amp;nbsp;&lt;/b&gt;&lt;/span&gt;&lt;b style=&quot;background-color: initial;&quot;&gt;TextBlock&lt;/b&gt;&lt;/div&gt;" style="text;html=1;strokeColor=none;fillColor=none;align=left;verticalAlign=middle;whiteSpace=wrap;rounded=0;" vertex="1" parent="1">
          <mxGeometry x="205" y="240" width="110" height="30" as="geometry" />
        </mxCell>
        <mxCell id="M4kgXLvnVEi-8cHZ9Ypp-2" value="&lt;div style=&quot;&quot;&gt;&lt;b&gt;New TextBlock&lt;/b&gt;&lt;/div&gt;" style="text;html=1;strokeColor=none;fillColor=none;align=left;verticalAlign=middle;whiteSpace=wrap;rounded=0;" vertex="1" parent="1">
          <mxGeometry x="205" y="260" width="90" height="40" as="geometry" />
        </mxCell>
        <mxCell id="M4kgXLvnVEi-8cHZ9Ypp-3" value="" style="rounded=0;whiteSpace=wrap;html=1;fillColor=#fad7ac;strokeColor=#b46504;" vertex="1" parent="1">
          <mxGeometry x="330" y="250" width="60" height="10" as="geometry" />
        </mxCell>
        <mxCell id="M4kgXLvnVEi-8cHZ9Ypp-5" value="&lt;div style=&quot;&quot;&gt;&lt;b&gt;Result&lt;/b&gt;&lt;/div&gt;" style="text;html=1;strokeColor=none;fillColor=none;align=left;verticalAlign=middle;whiteSpace=wrap;rounded=0;" vertex="1" parent="1">
          <mxGeometry x="205" y="300" width="90" height="10" as="geometry" />
        </mxCell>
        <mxCell id="M4kgXLvnVEi-8cHZ9Ypp-7" value="" style="rounded=0;whiteSpace=wrap;html=1;fillColor=#d0cee2;strokeColor=#56517e;" vertex="1" parent="1">
          <mxGeometry x="330" y="275" width="60" height="10" as="geometry" />
        </mxCell>
        <mxCell id="M4kgXLvnVEi-8cHZ9Ypp-8" value="" style="rounded=0;whiteSpace=wrap;html=1;fillColor=#fad7ac;strokeColor=#b46504;" vertex="1" parent="1">
          <mxGeometry x="330" y="300" width="60" height="10" as="geometry" />
        </mxCell>
        <mxCell id="M4kgXLvnVEi-8cHZ9Ypp-9" value="" style="verticalLabelPosition=bottom;verticalAlign=top;html=1;shape=mxgraph.basic.patternFillRect;fillStyle=grid;step=5;fillStrokeWidth=0.2;fillStrokeColor=#dddddd;" vertex="1" parent="1">
          <mxGeometry x="410" y="230" width="90" height="100" as="geometry" />
        </mxCell>
        <mxCell id="M4kgXLvnVEi-8cHZ9Ypp-10" value="" style="rounded=0;whiteSpace=wrap;html=1;fillColor=#fad7ac;strokeColor=#b46504;" vertex="1" parent="1">
          <mxGeometry x="420" y="250" width="30" height="10" as="geometry" />
        </mxCell>
        <mxCell id="M4kgXLvnVEi-8cHZ9Ypp-11" value="" style="rounded=0;whiteSpace=wrap;html=1;fillColor=#d0cee2;strokeColor=#56517e;" vertex="1" parent="1">
          <mxGeometry x="460" y="275" width="30" height="10" as="geometry" />
        </mxCell>
        <mxCell id="M4kgXLvnVEi-8cHZ9Ypp-14" value="" style="rounded=0;whiteSpace=wrap;html=1;fillColor=#fad7ac;strokeColor=#b46504;" vertex="1" parent="1">
          <mxGeometry x="420" y="300" width="30" height="10" as="geometry" />
        </mxCell>
        <mxCell id="M4kgXLvnVEi-8cHZ9Ypp-16" value="" style="rounded=0;whiteSpace=wrap;html=1;fillColor=#d0cee2;strokeColor=#56517e;" vertex="1" parent="1">
          <mxGeometry x="460" y="300" width="30" height="10" as="geometry" />
        </mxCell>
        <mxCell id="M4kgXLvnVEi-8cHZ9Ypp-17" value="" style="verticalLabelPosition=bottom;verticalAlign=top;html=1;shape=mxgraph.basic.patternFillRect;fillStyle=grid;step=5;fillStrokeWidth=0.2;fillStrokeColor=#dddddd;" vertex="1" parent="1">
          <mxGeometry x="510" y="230" width="120" height="100" as="geometry" />
        </mxCell>
        <mxCell id="M4kgXLvnVEi-8cHZ9Ypp-18" value="" style="rounded=0;whiteSpace=wrap;html=1;fillColor=#fad7ac;strokeColor=#b46504;" vertex="1" parent="1">
          <mxGeometry x="520" y="250" width="100" height="10" as="geometry" />
        </mxCell>
        <mxCell id="M4kgXLvnVEi-8cHZ9Ypp-19" value="" style="rounded=0;whiteSpace=wrap;html=1;fillColor=#d0cee2;strokeColor=#56517e;" vertex="1" parent="1">
          <mxGeometry x="555" y="275" width="40" height="10" as="geometry" />
        </mxCell>
        <mxCell id="M4kgXLvnVEi-8cHZ9Ypp-24" value="" style="rounded=0;whiteSpace=wrap;html=1;fillColor=#fad7ac;strokeColor=#b46504;" vertex="1" parent="1">
          <mxGeometry x="520" y="300" width="34" height="10" as="geometry" />
        </mxCell>
        <mxCell id="M4kgXLvnVEi-8cHZ9Ypp-26" value="" style="rounded=0;whiteSpace=wrap;html=1;fillColor=#d0cee2;strokeColor=#56517e;" vertex="1" parent="1">
          <mxGeometry x="555" y="300" width="40" height="10" as="geometry" />
        </mxCell>
        <mxCell id="M4kgXLvnVEi-8cHZ9Ypp-27" value="" style="rounded=0;whiteSpace=wrap;html=1;" vertex="1" parent="1">
          <mxGeometry x="596" y="300" width="24" height="10" as="geometry" />
        </mxCell>
        <mxCell id="M4kgXLvnVEi-8cHZ9Ypp-34" value="" style="verticalLabelPosition=bottom;verticalAlign=top;html=1;shape=mxgraph.basic.patternFillRect;fillStyle=grid;step=5;fillStrokeWidth=0.2;fillStrokeColor=#dddddd;" vertex="1" parent="1">
          <mxGeometry x="640" y="230" width="80" height="100" as="geometry" />
        </mxCell>
        <mxCell id="M4kgXLvnVEi-8cHZ9Ypp-35" value="" style="rounded=0;whiteSpace=wrap;html=1;fillColor=#fad7ac;strokeColor=#b46504;" vertex="1" parent="1">
          <mxGeometry x="650" y="250" width="40" height="10" as="geometry" />
        </mxCell>
        <mxCell id="M4kgXLvnVEi-8cHZ9Ypp-36" value="" style="rounded=0;whiteSpace=wrap;html=1;fillColor=#d0cee2;strokeColor=#56517e;" vertex="1" parent="1">
          <mxGeometry x="670" y="275" width="40" height="10" as="geometry" />
        </mxCell>
        <mxCell id="M4kgXLvnVEi-8cHZ9Ypp-37" value="" style="rounded=0;whiteSpace=wrap;html=1;fillColor=#fad7ac;strokeColor=#b46504;" vertex="1" parent="1">
          <mxGeometry x="650" y="300" width="19" height="10" as="geometry" />
        </mxCell>
        <mxCell id="M4kgXLvnVEi-8cHZ9Ypp-38" value="" style="rounded=0;whiteSpace=wrap;html=1;fillColor=#d0cee2;strokeColor=#56517e;" vertex="1" parent="1">
          <mxGeometry x="670" y="300" width="40" height="10" as="geometry" />
        </mxCell>
        <mxCell id="M4kgXLvnVEi-8cHZ9Ypp-41" value="1" style="text;html=1;strokeColor=none;fillColor=none;align=right;verticalAlign=middle;whiteSpace=wrap;rounded=0;" vertex="1" parent="1">
          <mxGeometry x="380" y="234" width="20" height="10" as="geometry" />
        </mxCell>
        <mxCell id="M4kgXLvnVEi-8cHZ9Ypp-42" value="2" style="text;html=1;strokeColor=none;fillColor=none;align=right;verticalAlign=middle;whiteSpace=wrap;rounded=0;" vertex="1" parent="1">
          <mxGeometry x="480" y="234" width="20" height="10" as="geometry" />
        </mxCell>
        <mxCell id="M4kgXLvnVEi-8cHZ9Ypp-43" value="3" style="text;html=1;strokeColor=none;fillColor=none;align=right;verticalAlign=middle;whiteSpace=wrap;rounded=0;" vertex="1" parent="1">
          <mxGeometry x="610" y="234" width="20" height="10" as="geometry" />
        </mxCell>
        <mxCell id="M4kgXLvnVEi-8cHZ9Ypp-44" value="4" style="text;html=1;strokeColor=none;fillColor=none;align=right;verticalAlign=middle;whiteSpace=wrap;rounded=0;" vertex="1" parent="1">
          <mxGeometry x="700" y="234" width="20" height="10" as="geometry" />
        </mxCell>
      </root>
    </mxGraphModel>
  </diagram>
</mxfile>
